<?xml version="1.0" encoding="UTF-8" standalone="no"?>
<svg
   xmlns:dc="http://purl.org/dc/elements/1.1/"
   xmlns:cc="http://creativecommons.org/ns#"
   xmlns:rdf="http://www.w3.org/1999/02/22-rdf-syntax-ns#"
   xmlns:svg="http://www.w3.org/2000/svg"
   xmlns="http://www.w3.org/2000/svg"
   xmlns:sodipodi="http://sodipodi.sourceforge.net/DTD/sodipodi-0.dtd"
   xmlns:inkscape="http://www.inkscape.org/namespaces/inkscape"
   id="svg"
   version="1.1"
   width="150"
   height="150"
   viewBox="0 0 257.18063 243.43256"
   sodipodi:docname="h_simple.svg"
   inkscape:version="0.92.4 (5da689c313, 2019-01-14)">
  <metadata
     id="metadata10">
    <rdf:RDF>
      <cc:Work
         rdf:about="">
        <dc:format>image/svg+xml</dc:format>
        <dc:type
           rdf:resource="http://purl.org/dc/dcmitype/StillImage" />
        <dc:title />
      </cc:Work>
    </rdf:RDF>
  </metadata>
  <defs
     id="defs8" />
  <sodipodi:namedview
     pagecolor="#ffffff"
     bordercolor="#666666"
     borderopacity="1"
     objecttolerance="10"
     gridtolerance="10"
     guidetolerance="10"
     inkscape:pageopacity="0"
     inkscape:pageshadow="2"
     inkscape:window-width="1366"
     inkscape:window-height="705"
     id="namedview6"
     showgrid="false"
     inkscape:zoom="0.6333638"
     inkscape:cx="304.43359"
     inkscape:cy="-53.435135"
     inkscape:window-x="-8"
     inkscape:window-y="-8"
     inkscape:window-maximized="1"
     inkscape:current-layer="layer3" />
  <g
     id="svgg"
     transform="translate(-67.857428,-78.067444)" />
  <g
     inkscape:groupmode="layer"
     id="layer2"
     inkscape:label="Layer 1"
     transform="translate(-67.857428,-78.067444)" />
  <g
     inkscape:groupmode="layer"
     id="layer3"
     inkscape:label="Layer 2"
     transform="translate(-67.857428,-78.067444)">
    <path
       style="fill:#f99a1f;fill-rule:evenodd;stroke:none;stroke-width:1.15128529"
       id="path1"
       d="m 156.81469,78.28288 c -7.32563,1.350458 -13.14307,7.369372 -13.14307,13.597826 0,0.255585 -0.13125,0.572188 -0.29012,0.704586 -0.25789,0.214139 -0.28898,12.791928 -0.28322,114.577068 l 0.006,114.3353 h 15.42607 15.42607 l 0.091,-35.92931 c 0.0898,-36.07092 0.11168,-37.21645 0.81051,-43.41382 1.53121,-13.55869 5.87616,-21.02247 14.86079,-25.5286 14.27824,-7.15754 30.97533,-1.43566 34.82177,11.93422 1.42299,4.94477 1.41263,4.60629 1.55884,51.58679 l 0.12895,41.25516 15.23035,0.0484 15.23035,0.0495 0.006,-22.9785 c 0.003,-12.63881 0.0414,-32.34767 0.0863,-43.79835 0.0979,-25.45262 -0.0564,-28.36076 -1.91804,-36.07322 -5.06106,-20.96951 -21.46111,-32.82775 -45.37676,-32.80818 -13.70145,0.0115 -24.64096,4.27472 -34.08726,13.28583 -0.64932,0.61939 -1.21115,1.05573 -1.24799,0.96938 -0.0587,-0.13815 0.1796,-95.49912 0.25904,-103.7711 0.0783,-8.087781 -2.37856,-13.319222 -7.66987,-16.334432 -2.89203,-1.647489 -6.69817,-2.302571 -9.92523,-1.708508 m 107.3965,25.22235 c -2.25076,0.33963 -3.10847,0.67581 -3.10847,1.21691 0,0.10016 -0.21644,0.43979 -0.48124,0.75409 l -0.48123,0.57219 0.061,24.88043 c 0.0334,13.68304 0.11512,25.13833 0.1819,25.45378 0.24062,1.14898 0.586,1.24915 4.33804,1.24915 3.9869,0.001 7.20705,0.27055 9.11242,0.76445 0.7541,0.19457 2.21393,0.57564 3.24318,0.84504 4.63392,1.21461 12.34753,5.17502 14.63629,7.51558 1.50818,1.54388 1.93415,1.72463 2.12066,0.90031 0.0668,-0.29013 0.18075,-0.78633 0.25559,-1.10293 0.21183,-0.89801 1.98597,-2.18399 4.76402,-3.45156 1.34585,-0.61363 3.52754,-1.61409 4.84806,-2.22197 1.73499,-0.80014 3.35484,-1.35621 5.85198,-2.00899 l 3.45271,-0.90376 5.33045,-0.1347 c 6.06497,-0.15427 6.24687,-0.20032 6.50706,-1.6613 0.36726,-2.06771 0.16579,-50.27895 -0.21183,-50.62088 -0.20148,-0.18191 -0.41792,-0.5388 -0.48239,-0.79324 -0.23256,-0.92793 -4.32884,-1.79255 -7.3878,-1.55999 -6.3551,0.48239 -11.11105,1.32398 -14.0169,2.47872 -3.31225,1.31476 -6.34013,3.07853 -8.79121,5.11746 -1.43911,1.19849 -1.32283,1.20079 -2.80453,-0.0564 -3.10157,-2.62954 -7.99683,-5.15315 -11.53013,-5.94178 -6.21118,-1.385 -11.71432,-1.84666 -15.40765,-1.29059 M 68.05408,147.27025 c 0,0.47433 0.03799,0.6689 0.08404,0.43173 0.0449,-0.23832 0.0449,-0.6263 0,-0.86346 -0.04605,-0.23832 -0.08404,-0.0437 -0.08404,0.43173 m 0.01475,10.93717 c 0,0.89685 0.03339,1.26411 0.07368,0.81511 0.0403,-0.449 0.0403,-1.18237 0,-1.63137 -0.0403,-0.44785 -0.07368,-0.0817 -0.07368,0.81626 m -0.211336,39.04698 c 0.0023,0.42252 0.04145,0.57219 0.0875,0.33387 0.04605,-0.23831 0.0449,-0.5837 -0.0035,-0.7679 -0.04835,-0.18306 -0.08519,0.0127 -0.08404,0.43403 m 0.01768,10.7461 c 0.0012,0.84389 0.03454,1.1651 0.07598,0.71379 0.0403,-0.4513 0.03914,-1.14207 -0.0023,-1.53466 -0.0403,-0.39259 -0.07368,-0.0242 -0.07368,0.82087"
       inkscape:connector-curvature="0"
       sodipodi:nodetypes="cscccccccccccccccccccccccscccccccccccccccccccccccccccccscccccccccc" />
  </g>
</svg>
