<?xml version="1.0" encoding="UTF-8" standalone="no"?>
<svg
   xmlns:dc="http://purl.org/dc/elements/1.1/"
   xmlns:cc="http://creativecommons.org/ns#"
   xmlns:rdf="http://www.w3.org/1999/02/22-rdf-syntax-ns#"
   xmlns:svg="http://www.w3.org/2000/svg"
   xmlns="http://www.w3.org/2000/svg"
   xmlns:sodipodi="http://sodipodi.sourceforge.net/DTD/sodipodi-0.dtd"
   xmlns:inkscape="http://www.inkscape.org/namespaces/inkscape"
   id="svg"
   version="1.1"
   width="400"
   height="400"
   viewBox="0, 0, 400,400"
   sodipodi:docname="h_hexagon.svg"
   inkscape:version="0.92.4 (5da689c313, 2019-01-14)">
  <metadata
     id="metadata10">
    <rdf:RDF>
      <cc:Work
         rdf:about="">
        <dc:format>image/svg+xml</dc:format>
        <dc:type
           rdf:resource="http://purl.org/dc/dcmitype/StillImage" />
        <dc:title></dc:title>
      </cc:Work>
    </rdf:RDF>
  </metadata>
  <defs
     id="defs8" />
  <sodipodi:namedview
     pagecolor="#ffffff"
     bordercolor="#666666"
     borderopacity="1"
     objecttolerance="10"
     gridtolerance="10"
     guidetolerance="10"
     inkscape:pageopacity="0"
     inkscape:pageshadow="2"
     inkscape:window-width="1366"
     inkscape:window-height="705"
     id="namedview6"
     showgrid="false"
     inkscape:zoom="0.6333638"
     inkscape:cx="197.1293"
     inkscape:cy="227.62843"
     inkscape:window-x="-8"
     inkscape:window-y="-8"
     inkscape:window-maximized="1"
     inkscape:current-layer="layer3" />
  <g
     id="svgg"
     style="" />
  <g
     inkscape:groupmode="layer"
     id="layer2"
     inkscape:label="Layer 1">
    <path
       id="path0"
       d="m 199.75,0.218 c -0.183,0.109 -0.371,0.245 -0.417,0.301 -0.046,0.057 -0.252,0.155 -0.458,0.22 -0.206,0.064 -0.375,0.173 -0.375,0.241 0,0.069 -0.263,0.227 -0.583,0.353 -0.321,0.126 -0.584,0.282 -0.584,0.347 0,0.064 -0.17,0.16 -0.378,0.212 -0.208,0.052 -0.533,0.239 -0.721,0.414 -0.189,0.176 -0.525,0.375 -0.747,0.443 -0.222,0.068 -0.519,0.225 -0.66,0.348 -0.141,0.123 -0.741,0.477 -1.334,0.786 -1.431,0.746 -1.852,0.993 -2.123,1.242 -0.125,0.115 -0.316,0.209 -0.424,0.21 -0.108,0.001 -0.668,0.301 -1.244,0.667 -0.577,0.365 -1.111,0.665 -1.186,0.665 -0.076,0 -0.317,0.137 -0.535,0.305 -0.219,0.168 -0.735,0.487 -1.148,0.708 -0.412,0.222 -0.805,0.478 -0.872,0.57 -0.067,0.092 -0.124,0.113 -0.125,0.047 -0.002,-0.066 -0.276,0.065 -0.609,0.291 C 184.893,8.815 184.518,9 184.393,9 c -0.124,0 -0.226,0.067 -0.226,0.149 0,0.081 -0.188,0.195 -0.417,0.253 -0.229,0.057 -0.417,0.178 -0.417,0.268 0,0.09 -0.083,0.163 -0.185,0.163 -0.102,0 -0.795,0.366 -1.542,0.813 -0.746,0.446 -1.637,0.942 -1.981,1.102 -0.344,0.159 -0.625,0.351 -0.625,0.425 0,0.074 -0.25,0.217 -0.556,0.318 -0.306,0.101 -0.703,0.313 -0.883,0.471 -0.18,0.159 -0.773,0.513 -1.319,0.788 -0.546,0.275 -1.031,0.552 -1.079,0.615 -0.047,0.063 -0.272,0.198 -0.5,0.3 -0.227,0.102 -0.713,0.369 -1.08,0.593 -0.366,0.224 -0.966,0.561 -1.333,0.749 -1.093,0.56 -1.83,1.019 -1.889,1.177 -0.03,0.082 -0.166,0.149 -0.3,0.149 -0.135,0 -0.521,0.188 -0.859,0.417 -0.337,0.229 -0.708,0.417 -0.824,0.417 -0.116,0 -0.211,0.067 -0.211,0.148 0,0.082 -0.282,0.272 -0.625,0.422 -0.344,0.151 -1.113,0.57 -1.709,0.932 -0.596,0.362 -1.177,0.659 -1.291,0.661 -0.115,0.002 -0.209,0.078 -0.209,0.17 0,0.092 -0.112,0.167 -0.25,0.167 -0.137,0 -0.25,0.07 -0.25,0.155 0,0.086 -0.168,0.208 -0.375,0.272 -0.206,0.063 -1.094,0.556 -1.973,1.094 -0.88,0.538 -1.64,0.979 -1.691,0.979 -0.051,0 -0.916,0.487 -1.923,1.083 -1.007,0.596 -1.906,1.083 -1.997,1.083 -0.092,0 -0.25,0.101 -0.353,0.225 -0.103,0.124 -0.693,0.479 -1.312,0.79 -0.619,0.311 -1.225,0.659 -1.346,0.775 -0.121,0.116 -0.327,0.21 -0.458,0.21 -0.131,0 -0.373,0.135 -0.537,0.299 -0.164,0.164 -0.539,0.399 -0.833,0.52 -0.294,0.122 -0.535,0.282 -0.535,0.355 0,0.073 -0.225,0.183 -0.5,0.243 -0.275,0.06 -0.5,0.167 -0.5,0.236 0,0.07 -0.562,0.416 -1.25,0.769 -0.687,0.354 -1.25,0.699 -1.25,0.766 0,0.068 -0.169,0.176 -0.375,0.241 -0.206,0.065 -0.77,0.37 -1.253,0.678 -0.483,0.308 -0.99,0.56 -1.125,0.56 -0.136,0 -0.248,0.056 -0.249,0.125 -10e-4,0.069 -0.301,0.268 -0.667,0.443 -0.365,0.176 -0.664,0.382 -0.664,0.459 0,0.077 -0.094,0.14 -0.209,0.14 -0.114,0 -0.658,0.273 -1.208,0.606 -0.55,0.333 -1.488,0.868 -2.083,1.19 -0.596,0.322 -1.459,0.822 -1.917,1.111 -0.458,0.289 -1.077,0.625 -1.375,0.746 -0.298,0.121 -0.542,0.286 -0.542,0.367 0,0.08 -0.072,0.146 -0.161,0.146 -0.089,0 -0.843,0.394 -1.675,0.875 -2.139,1.236 -2.596,1.494 -3.914,2.201 -0.641,0.345 -1.268,0.71 -1.392,0.811 -0.251,0.204 -0.689,0.463 -1.441,0.852 -0.275,0.143 -0.8,0.448 -1.167,0.68 -0.366,0.231 -0.852,0.499 -1.08,0.595 -0.227,0.095 -0.452,0.225 -0.5,0.288 -0.047,0.063 -0.349,0.243 -0.67,0.399 -0.677,0.33 -1.878,1.011 -2,1.134 -0.046,0.046 -0.514,0.305 -1.041,0.576 -0.527,0.271 -0.959,0.552 -0.959,0.625 0,0.072 -0.097,0.131 -0.216,0.131 -0.118,0 -0.763,0.338 -1.432,0.75 -0.669,0.413 -1.256,0.75 -1.304,0.75 -0.048,0 -0.546,0.281 -1.107,0.625 -0.561,0.344 -1.209,0.719 -1.439,0.835 -0.23,0.115 -0.718,0.391 -1.085,0.613 -0.367,0.222 -0.892,0.521 -1.167,0.664 -0.275,0.144 -0.8,0.451 -1.166,0.682 -0.367,0.232 -0.854,0.512 -1.084,0.623 -0.229,0.111 -0.454,0.246 -0.5,0.3 -0.046,0.055 -0.645,0.394 -1.332,0.754 -0.687,0.36 -1.349,0.748 -1.47,0.862 -0.122,0.115 -0.294,0.209 -0.383,0.209 -0.09,0 -1.096,0.562 -2.237,1.25 -1.141,0.687 -2.144,1.25 -2.231,1.25 -0.086,0 -0.255,0.094 -0.376,0.21 -0.122,0.116 -0.408,0.301 -0.637,0.413 -0.229,0.111 -0.717,0.392 -1.084,0.624 -0.366,0.232 -0.921,0.539 -1.232,0.683 -0.312,0.144 -0.673,0.368 -0.804,0.499 -0.131,0.13 -0.335,0.237 -0.455,0.237 -0.12,0 -0.302,0.101 -0.404,0.225 -0.103,0.124 -0.693,0.479 -1.313,0.79 -0.619,0.311 -1.224,0.659 -1.345,0.775 -0.121,0.116 -0.297,0.21 -0.391,0.21 -0.094,0 -0.37,0.14 -0.613,0.311 -0.244,0.171 -1.043,0.632 -1.776,1.024 -0.733,0.392 -1.371,0.759 -1.417,0.816 -0.046,0.057 -0.458,0.289 -0.916,0.516 -0.459,0.227 -0.871,0.461 -0.917,0.521 -0.046,0.061 -0.683,0.429 -1.417,0.82 -0.733,0.391 -1.371,0.755 -1.416,0.81 -0.046,0.054 -0.346,0.243 -0.667,0.42 -0.321,0.176 -0.621,0.364 -0.667,0.417 -0.046,0.053 -0.552,0.322 -1.124,0.596 -0.573,0.275 -1.042,0.556 -1.042,0.624 0,0.069 -0.113,0.125 -0.25,0.125 -0.138,0 -0.25,0.075 -0.25,0.167 0,0.092 -0.102,0.167 -0.226,0.167 -0.124,0 -0.892,0.412 -1.708,0.916 -0.816,0.504 -1.764,1.037 -2.108,1.185 C 76.281,70.915 76,71.097 76,71.172 c 0,0.074 -0.225,0.184 -0.5,0.245 -0.275,0.06 -0.5,0.177 -0.5,0.26 0,0.082 -0.187,0.197 -0.417,0.255 -0.229,0.057 -0.416,0.161 -0.416,0.23 0,0.069 -0.338,0.255 -0.75,0.412 -0.413,0.158 -0.75,0.355 -0.75,0.438 0,0.082 -0.244,0.262 -0.542,0.4 -0.298,0.137 -1.038,0.532 -1.644,0.877 -3.342,1.903 -4.207,2.378 -4.337,2.378 -0.079,0 -0.144,0.056 -0.144,0.126 0,0.069 -0.244,0.233 -0.542,0.365 -0.298,0.131 -0.991,0.524 -1.541,0.872 -0.55,0.348 -1.094,0.634 -1.209,0.635 -0.114,10e-4 -0.345,0.133 -0.512,0.293 -0.168,0.161 -0.666,0.477 -1.108,0.703 -0.441,0.226 -0.888,0.488 -0.991,0.583 -0.104,0.095 -0.562,0.356 -1.018,0.581 -0.456,0.224 -1.04,0.551 -1.298,0.727 -0.257,0.175 -0.82,0.511 -1.25,0.746 -1.854,1.015 -2.701,1.499 -4.281,2.448 -0.367,0.221 -0.948,0.536 -1.292,0.7 -0.343,0.165 -0.625,0.357 -0.625,0.427 0,0.07 -0.075,0.127 -0.168,0.127 -0.222,0 -3.232,1.705 -3.304,1.871 -0.03,0.071 -0.143,0.129 -0.25,0.129 -0.107,0 -0.818,0.375 -1.579,0.834 -0.762,0.458 -1.424,0.833 -1.47,0.833 -0.047,0 -0.412,0.225 -0.812,0.5 -0.4,0.275 -0.778,0.5 -0.842,0.5 -0.063,0 -0.574,0.28 -1.136,0.623 -1.107,0.674 -1.787,1.066 -2.439,1.404 -0.229,0.119 -0.454,0.255 -0.5,0.303 -0.046,0.047 -0.346,0.218 -0.666,0.379 -0.321,0.161 -0.884,0.482 -1.25,0.713 -0.367,0.232 -0.873,0.501 -1.125,0.599 -0.252,0.098 -0.459,0.241 -0.459,0.317 0,0.077 -0.168,0.19 -0.375,0.251 -0.306,0.092 -1.479,0.75 -3.125,1.753 -0.137,0.084 -0.475,0.269 -0.75,0.411 -0.911,0.471 -1.825,1 -2.439,1.411 l -0.605,0.405 -0.109,1.924 c -0.06,1.058 -0.142,13.473 -0.182,27.59 -0.076,27.038 -0.216,66.626 -0.333,94.417 -0.038,9.12 -0.116,30.014 -0.174,46.43 l -0.104,29.846 1.027,0.612 c 0.564,0.336 1.099,0.612 1.188,0.612 0.089,0 0.303,0.131 0.475,0.292 0.173,0.16 0.733,0.504 1.245,0.763 0.512,0.259 1.028,0.559 1.145,0.666 0.213,0.194 0.906,0.596 1.866,1.082 0.275,0.14 0.538,0.299 0.584,0.354 0.045,0.055 0.271,0.195 0.5,0.313 0.988,0.505 1.428,0.767 1.635,0.975 0.122,0.122 0.318,0.221 0.435,0.221 0.117,0 0.524,0.225 0.903,0.5 0.38,0.275 0.75,0.5 0.822,0.5 0.072,0 0.654,0.339 1.293,0.753 0.639,0.414 1.33,0.798 1.537,0.852 0.206,0.054 0.375,0.16 0.375,0.236 0,0.075 0.168,0.19 0.375,0.255 0.206,0.066 0.6,0.281 0.875,0.478 0.275,0.198 0.725,0.468 1,0.601 0.275,0.133 0.537,0.288 0.583,0.345 0.046,0.057 0.458,0.304 0.917,0.549 0.458,0.246 1.246,0.692 1.75,0.991 0.504,0.3 2.641,1.542 4.75,2.761 4.311,2.492 4.489,2.595 5.715,3.323 0.486,0.288 0.954,0.523 1.042,0.523 0.088,0 0.159,0.058 0.159,0.129 0,0.071 0.524,0.389 1.164,0.708 0.64,0.319 1.165,0.64 1.167,0.713 10e-4,0.073 0.284,0.262 0.628,0.421 0.343,0.158 0.925,0.478 1.291,0.71 0.367,0.233 0.911,0.521 1.209,0.641 0.298,0.12 0.541,0.266 0.542,0.323 0,0.058 0.506,0.367 1.125,0.688 0.618,0.321 1.163,0.635 1.21,0.697 0.048,0.062 0.498,0.33 1,0.595 0.503,0.265 1.237,0.687 1.631,0.936 0.394,0.25 0.919,0.544 1.167,0.654 0.247,0.109 0.595,0.331 0.773,0.492 0.177,0.161 0.402,0.295 0.5,0.297 0.097,0.002 0.364,0.15 0.593,0.329 0.23,0.18 0.548,0.328 0.709,0.33 0.16,0.002 0.291,0.067 0.291,0.144 0,0.077 1.294,0.877 2.875,1.777 1.582,0.9 2.913,1.68 2.959,1.734 0.045,0.054 0.57,0.356 1.166,0.67 0.596,0.314 1.121,0.614 1.167,0.666 0.046,0.053 0.589,0.358 1.207,0.679 0.618,0.321 1.124,0.64 1.125,0.709 0.001,0.068 0.108,0.125 0.239,0.125 0.131,0 0.341,0.102 0.467,0.228 0.125,0.125 0.384,0.277 0.574,0.338 0.191,0.06 0.563,0.295 0.826,0.522 0.263,0.226 0.585,0.411 0.716,0.411 0.13,10e-4 0.374,0.125 0.542,0.278 0.346,0.313 0.725,0.54 1.804,1.082 0.412,0.207 0.849,0.474 0.97,0.592 0.121,0.119 0.321,0.215 0.445,0.215 0.123,0 0.249,0.057 0.279,0.125 0.031,0.069 0.319,0.257 0.639,0.419 0.321,0.161 0.809,0.443 1.084,0.625 0.275,0.183 0.725,0.448 1,0.589 0.275,0.141 0.987,0.552 1.583,0.913 0.596,0.361 1.177,0.658 1.292,0.659 0.114,0.002 0.208,0.074 0.208,0.159 0,0.086 0.169,0.208 0.375,0.273 0.206,0.064 0.412,0.163 0.458,0.22 0.104,0.127 1.827,1.185 1.932,1.185 0.042,0 0.552,0.3 1.132,0.667 0.581,0.366 1.099,0.666 1.151,0.666 0.111,0 2.779,1.584 3.048,1.809 0.099,0.083 0.343,0.202 0.542,0.266 0.199,0.063 0.362,0.169 0.362,0.236 0,0.067 0.262,0.217 0.583,0.333 0.321,0.116 0.584,0.286 0.584,0.377 0,0.091 0.075,0.119 0.166,0.063 0.092,-0.057 0.167,-0.04 0.167,0.037 0,0.077 0.206,0.233 0.458,0.346 0.634,0.286 1.442,0.731 1.542,0.851 0.125,0.149 1.021,0.65 1.542,0.862 0.252,0.102 0.458,0.24 0.458,0.306 0,0.065 0.263,0.222 0.583,0.348 0.321,0.126 0.584,0.281 0.584,0.345 0,0.064 0.131,0.162 0.291,0.218 0.161,0.057 0.742,0.365 1.292,0.686 0.55,0.321 1.112,0.634 1.25,0.696 0.138,0.063 0.475,0.273 0.75,0.468 0.275,0.194 0.725,0.459 1,0.588 0.275,0.129 0.612,0.323 0.75,0.431 0.138,0.108 0.625,0.398 1.083,0.644 0.459,0.246 1.036,0.573 1.283,0.727 0.247,0.154 1.935,1.137 3.75,2.184 1.815,1.047 3.338,1.947 3.384,2 0.046,0.053 0.346,0.234 0.667,0.403 0.982,0.518 1.579,0.856 1.666,0.943 0.138,0.138 0.692,0.45 1.792,1.009 0.573,0.291 1.042,0.596 1.042,0.677 0,0.081 0.104,0.147 0.231,0.147 0.127,0 0.68,0.3 1.229,0.667 0.549,0.367 1.077,0.667 1.174,0.667 0.096,0 0.279,0.103 0.405,0.229 0.126,0.127 0.713,0.479 1.303,0.783 0.591,0.304 1.113,0.608 1.16,0.675 0.048,0.068 0.498,0.34 1,0.605 0.503,0.265 1.214,0.665 1.581,0.89 0.367,0.225 0.892,0.519 1.167,0.655 0.275,0.135 0.537,0.292 0.583,0.348 0.046,0.057 0.397,0.262 0.78,0.457 0.384,0.194 0.744,0.429 0.802,0.522 0.057,0.093 0.25,0.169 0.428,0.169 0.178,0 0.323,0.066 0.323,0.148 0,0.081 0.244,0.269 0.542,0.418 0.298,0.149 0.842,0.458 1.208,0.687 0.367,0.229 0.929,0.549 1.25,0.711 0.321,0.162 0.884,0.487 1.25,0.722 0.367,0.235 0.865,0.533 1.108,0.662 0.243,0.13 0.925,0.517 1.516,0.86 0.591,0.344 1.162,0.625 1.267,0.625 0.106,0 0.193,0.07 0.193,0.154 0,0.085 0.431,0.366 0.958,0.625 0.527,0.259 0.996,0.514 1.042,0.566 0.045,0.052 0.533,0.347 1.083,0.655 0.55,0.309 1.037,0.604 1.083,0.656 0.075,0.085 0.749,0.458 2.042,1.13 0.252,0.131 0.458,0.297 0.458,0.368 0,0.071 0.282,0.252 0.625,0.402 0.344,0.15 0.85,0.423 1.125,0.607 0.275,0.183 0.688,0.428 0.917,0.543 0.229,0.115 0.938,0.529 1.576,0.919 0.637,0.39 1.256,0.709 1.375,0.709 0.118,0 0.216,0.067 0.216,0.15 0,0.083 0.206,0.237 0.458,0.343 0.643,0.27 1.585,0.787 1.839,1.01 0.118,0.103 0.643,0.412 1.167,0.688 0.524,0.275 1.065,0.593 1.202,0.706 0.138,0.114 0.622,0.389 1.077,0.613 0.455,0.223 0.975,0.538 1.157,0.698 0.181,0.16 0.388,0.292 0.46,0.292 0.073,0 0.87,0.44 1.771,0.979 0.902,0.538 2.272,1.336 3.046,1.774 0.773,0.437 1.443,0.849 1.489,0.915 0.046,0.066 0.252,0.173 0.458,0.237 0.205,0.064 0.472,0.205 0.592,0.314 0.119,0.108 0.701,0.453 1.292,0.765 0.591,0.312 1.112,0.612 1.158,0.667 0.094,0.111 0.74,0.478 1.792,1.016 0.39,0.199 0.708,0.431 0.708,0.514 0,0.084 0.122,0.152 0.272,0.152 0.149,0 0.711,0.3 1.248,0.667 0.537,0.366 1.078,0.666 1.203,0.666 0.124,0 0.348,0.136 0.498,0.301 0.15,0.166 0.78,0.559 1.401,0.875 0.62,0.316 1.167,0.625 1.214,0.688 0.048,0.062 0.498,0.33 1,0.595 0.503,0.265 1.237,0.686 1.631,0.936 0.394,0.249 0.881,0.526 1.083,0.615 0.202,0.088 0.93,0.508 1.617,0.932 1.889,1.164 2.94,1.725 3.23,1.725 0.297,0 2.288,-1.047 3.853,-2.027 0.275,-0.172 0.782,-0.435 1.125,-0.585 0.344,-0.149 0.625,-0.327 0.625,-0.395 0,-0.068 0.171,-0.166 0.379,-0.218 0.208,-0.053 0.53,-0.23 0.716,-0.394 0.186,-0.164 0.784,-0.523 1.329,-0.798 0.544,-0.275 1.09,-0.593 1.212,-0.708 0.122,-0.115 0.288,-0.208 0.37,-0.208 0.124,0 2.083,-1.102 2.994,-1.684 0.138,-0.088 0.382,-0.203 0.542,-0.257 0.16,-0.054 0.292,-0.164 0.292,-0.245 0,-0.081 0.095,-0.148 0.212,-0.148 0.117,0 0.751,-0.335 1.41,-0.744 0.658,-0.41 1.443,-0.858 1.745,-0.997 0.568,-0.26 1.154,-0.607 1.299,-0.767 0.046,-0.051 0.359,-0.22 0.695,-0.377 0.337,-0.156 0.637,-0.34 0.667,-0.408 0.03,-0.068 0.557,-0.368 1.17,-0.667 0.614,-0.3 1.217,-0.637 1.34,-0.75 0.123,-0.114 0.671,-0.431 1.217,-0.706 0.547,-0.275 1.032,-0.548 1.078,-0.607 0.046,-0.058 0.365,-0.223 0.708,-0.366 0.344,-0.143 0.625,-0.331 0.625,-0.417 0,-0.087 0.183,-0.203 0.405,-0.259 0.223,-0.056 0.506,-0.195 0.628,-0.31 0.123,-0.114 0.597,-0.395 1.054,-0.625 0.456,-0.229 0.87,-0.47 0.919,-0.535 0.049,-0.065 0.363,-0.233 0.697,-0.372 0.334,-0.14 0.649,-0.321 0.699,-0.402 0.05,-0.081 0.524,-0.363 1.053,-0.627 0.529,-0.264 1.107,-0.612 1.285,-0.772 0.178,-0.16 0.414,-0.292 0.526,-0.292 0.111,0 0.75,-0.337 1.419,-0.75 0.669,-0.412 1.314,-0.75 1.433,-0.75 0.118,0 0.216,-0.058 0.216,-0.128 0,-0.071 0.281,-0.277 0.625,-0.457 0.343,-0.181 0.662,-0.366 0.708,-0.413 0.046,-0.047 0.421,-0.263 0.833,-0.48 1.878,-0.989 2.585,-1.387 2.664,-1.502 0.048,-0.068 0.686,-0.449 1.42,-0.847 0.733,-0.398 1.671,-0.907 2.083,-1.13 0.412,-0.223 0.868,-0.512 1.013,-0.641 0.145,-0.129 0.324,-0.235 0.398,-0.235 0.075,0 0.519,-0.236 0.987,-0.524 0.469,-0.289 1.339,-0.786 1.935,-1.104 0.596,-0.319 1.196,-0.67 1.334,-0.782 0.137,-0.111 0.493,-0.298 0.791,-0.416 0.298,-0.118 0.542,-0.266 0.542,-0.33 0,-0.063 0.262,-0.218 0.583,-0.344 0.321,-0.126 0.584,-0.29 0.584,-0.364 0,-0.075 0.082,-0.136 0.183,-0.136 0.101,0 0.82,-0.375 1.599,-0.833 0.779,-0.459 1.477,-0.834 1.553,-0.834 0.075,0 0.162,-0.056 0.192,-0.125 0.031,-0.068 0.318,-0.255 0.639,-0.414 0.321,-0.158 1.259,-0.702 2.084,-1.207 0.825,-0.504 1.753,-1.035 2.062,-1.18 0.309,-0.144 0.857,-0.448 1.219,-0.677 0.816,-0.515 1.731,-1.04 2.385,-1.369 0.275,-0.138 0.538,-0.295 0.584,-0.348 0.045,-0.053 0.364,-0.226 0.708,-0.385 0.344,-0.159 0.625,-0.365 0.625,-0.459 0,-0.093 0.146,-0.169 0.323,-0.169 0.178,0 0.365,-0.066 0.415,-0.147 0.05,-0.081 0.411,-0.308 0.802,-0.505 0.39,-0.196 1.085,-0.582 1.543,-0.858 0.459,-0.276 1.021,-0.592 1.25,-0.702 0.23,-0.11 0.516,-0.295 0.637,-0.411 0.121,-0.116 0.292,-0.21 0.379,-0.21 0.086,0 0.464,-0.193 0.838,-0.43 0.374,-0.236 1.028,-0.623 1.455,-0.86 0.426,-0.236 0.922,-0.512 1.102,-0.612 0.179,-0.1 0.428,-0.275 0.553,-0.39 0.125,-0.115 0.297,-0.208 0.382,-0.208 0.086,0 0.962,-0.488 1.947,-1.083 0.985,-0.596 1.884,-1.083 1.999,-1.084 0.115,0 0.208,-0.067 0.208,-0.149 0,-0.081 0.171,-0.191 0.379,-0.243 0.208,-0.052 0.527,-0.229 0.71,-0.393 0.182,-0.164 0.781,-0.518 1.33,-0.786 0.549,-0.268 1.035,-0.531 1.081,-0.583 0.046,-0.053 0.309,-0.208 0.584,-0.343 0.517,-0.255 1.77,-1.019 1.916,-1.168 0.046,-0.047 0.517,-0.31 1.047,-0.585 1.318,-0.684 1.731,-0.916 2.741,-1.539 0.48,-0.295 1.117,-0.651 1.417,-0.79 0.3,-0.139 0.789,-0.403 1.087,-0.587 1.775,-1.095 3.392,-2.001 3.571,-2.001 0.076,0 0.137,-0.075 0.137,-0.166 0,-0.092 0.107,-0.167 0.236,-0.167 0.13,0 0.262,-0.056 0.292,-0.125 0.031,-0.069 0.318,-0.256 0.639,-0.415 0.708,-0.352 2.425,-1.31 3.953,-2.205 1.708,-1 2.093,-1.215 2.547,-1.422 0.229,-0.104 0.532,-0.295 0.674,-0.423 0.142,-0.129 0.592,-0.413 1,-0.632 2.14,-1.146 2.806,-1.524 3.457,-1.961 0.393,-0.264 0.899,-0.527 1.125,-0.583 0.226,-0.057 0.411,-0.156 0.411,-0.22 0,-0.064 0.3,-0.249 0.666,-0.411 0.367,-0.161 0.667,-0.363 0.667,-0.448 0,-0.085 0.084,-0.155 0.187,-0.155 0.231,0 3.209,-1.697 3.285,-1.873 0.031,-0.07 0.13,-0.127 0.221,-0.127 0.091,0 0.666,-0.292 1.278,-0.648 0.612,-0.357 1.487,-0.854 1.946,-1.105 0.458,-0.251 0.945,-0.541 1.083,-0.645 0.137,-0.103 0.623,-0.375 1.078,-0.603 0.456,-0.229 0.976,-0.547 1.157,-0.707 0.18,-0.161 0.414,-0.292 0.52,-0.292 0.198,0 2.873,-1.562 3.153,-1.842 0.087,-0.087 0.294,-0.158 0.459,-0.158 0.165,0 0.3,-0.066 0.3,-0.148 0,-0.081 0.281,-0.281 0.625,-0.444 0.343,-0.163 1.175,-0.622 1.847,-1.019 0.672,-0.397 1.291,-0.722 1.375,-0.722 0.084,0 0.153,-0.068 0.153,-0.151 0,-0.082 0.206,-0.232 0.458,-0.333 0.252,-0.101 0.683,-0.32 0.958,-0.487 0.275,-0.167 1.021,-0.589 1.658,-0.938 0.637,-0.348 1.256,-0.731 1.376,-0.851 0.12,-0.12 0.387,-0.271 0.592,-0.336 0.206,-0.065 0.749,-0.351 1.208,-0.637 0.458,-0.286 1.058,-0.632 1.333,-0.769 0.275,-0.137 0.599,-0.342 0.72,-0.457 0.121,-0.114 0.328,-0.208 0.459,-0.208 0.131,0 0.238,-0.06 0.238,-0.133 0,-0.073 0.267,-0.23 0.594,-0.348 0.327,-0.118 0.635,-0.321 0.684,-0.45 0.05,-0.13 0.214,-0.237 0.364,-0.239 0.151,-0.002 0.462,-0.151 0.691,-0.33 0.229,-0.179 0.505,-0.328 0.613,-0.33 0.108,-0.002 0.296,-0.097 0.417,-0.212 0.121,-0.114 0.482,-0.338 0.803,-0.496 0.321,-0.159 0.884,-0.478 1.25,-0.709 0.367,-0.232 0.892,-0.535 1.167,-0.673 0.275,-0.138 0.613,-0.324 0.75,-0.412 0.816,-0.523 2.885,-1.668 3.014,-1.668 0.084,0 0.153,-0.064 0.153,-0.141 0,-0.078 0.281,-0.264 0.625,-0.414 0.343,-0.15 0.868,-0.424 1.166,-0.609 0.298,-0.185 0.786,-0.487 1.084,-0.671 0.298,-0.184 0.841,-0.487 1.208,-0.674 0.367,-0.187 0.892,-0.475 1.167,-0.642 0.681,-0.411 1.55,-0.91 2.242,-1.286 0.317,-0.172 0.678,-0.407 0.804,-0.521 0.125,-0.115 0.296,-0.209 0.379,-0.209 0.084,0 0.622,-0.286 1.197,-0.635 0.574,-0.35 1.157,-0.686 1.294,-0.747 0.138,-0.061 0.55,-0.298 0.917,-0.526 0.367,-0.229 0.895,-0.52 1.173,-0.647 0.279,-0.128 0.616,-0.337 0.75,-0.467 0.134,-0.129 0.731,-0.48 1.327,-0.781 0.596,-0.3 1.383,-0.732 1.75,-0.959 0.367,-0.228 0.873,-0.494 1.125,-0.592 0.252,-0.098 0.458,-0.235 0.458,-0.303 0,-0.069 0.282,-0.248 0.625,-0.398 0.662,-0.288 1.734,-0.91 1.877,-1.088 0.081,-0.102 1.501,-0.884 2.289,-1.261 0.338,-0.162 0.375,-0.306 0.395,-1.512 0.028,-1.768 0.093,-19.695 0.215,-59.917 0.134,-43.938 0.397,-106.285 0.453,-107.083 0.006,-0.092 0.006,-1.93 0,-4.084 -0.006,-2.154 -0.002,-4.554 0.009,-5.333 0.012,-0.779 0.013,-2.692 0.003,-4.25 -0.01,-1.558 0.003,-6.021 0.028,-9.917 0.059,-8.97 0.127,-8.334 -0.95,-8.912 -0.473,-0.253 -1.183,-0.677 -1.577,-0.941 -0.394,-0.264 -0.746,-0.48 -0.782,-0.48 -0.036,0 -0.77,-0.412 -1.632,-0.917 -0.861,-0.504 -1.643,-0.916 -1.739,-0.916 -0.095,0 -0.265,-0.111 -0.377,-0.247 -0.113,-0.135 -0.403,-0.348 -0.646,-0.473 -1.109,-0.57 -2.782,-1.504 -2.857,-1.596 -0.046,-0.055 -0.518,-0.326 -1.05,-0.601 -0.531,-0.275 -1.109,-0.631 -1.285,-0.792 -0.175,-0.16 -0.471,-0.291 -0.658,-0.291 -0.197,0 -0.341,-0.11 -0.341,-0.26 0,-0.143 -0.075,-0.214 -0.166,-0.157 -0.092,0.057 -0.167,0.034 -0.167,-0.051 0,-0.084 -0.342,-0.284 -0.76,-0.444 -0.418,-0.16 -0.905,-0.446 -1.083,-0.637 -0.178,-0.191 -0.325,-0.277 -0.326,-0.191 -0.002,0.088 -0.056,0.084 -0.125,-0.01 -0.068,-0.092 -0.385,-0.299 -0.706,-0.46 -0.321,-0.161 -0.883,-0.481 -1.25,-0.712 -0.367,-0.23 -0.779,-0.468 -0.917,-0.528 -0.137,-0.06 -0.287,-0.153 -0.333,-0.207 -0.046,-0.053 -0.522,-0.315 -1.058,-0.581 -0.536,-0.267 -1.063,-0.566 -1.172,-0.665 -0.259,-0.237 -1.043,-0.707 -1.77,-1.063 -0.321,-0.156 -0.666,-0.362 -0.768,-0.457 -0.101,-0.095 -0.551,-0.357 -1,-0.583 -0.448,-0.226 -0.84,-0.467 -0.871,-0.536 -0.03,-0.069 -0.162,-0.125 -0.292,-0.125 -0.129,0 -0.236,-0.057 -0.236,-0.126 0,-0.069 -0.243,-0.23 -0.541,-0.358 -0.298,-0.128 -1.215,-0.644 -2.037,-1.148 -1.432,-0.877 -2.546,-1.522 -3.405,-1.97 -0.22,-0.115 -0.445,-0.271 -0.501,-0.345 -0.092,-0.125 -1.751,-1.043 -2.639,-1.461 -0.206,-0.096 -0.375,-0.232 -0.375,-0.3 -10e-4,-0.069 -0.07,-0.125 -0.155,-0.125 -0.224,0 -2.754,-1.513 -2.819,-1.686 -0.03,-0.081 -0.18,-0.149 -0.333,-0.151 -0.153,-0.002 -0.465,-0.151 -0.695,-0.33 -0.229,-0.179 -0.497,-0.328 -0.596,-0.33 -0.098,-0.002 -0.355,-0.191 -0.571,-0.421 -0.215,-0.229 -0.472,-0.401 -0.571,-0.381 -0.176,0.035 -0.932,-0.323 -1.095,-0.518 -0.046,-0.055 -0.309,-0.218 -0.583,-0.362 -0.788,-0.413 -1.326,-0.73 -1.417,-0.833 -0.046,-0.053 -0.196,-0.147 -0.333,-0.209 -0.138,-0.062 -0.7,-0.376 -1.25,-0.697 -0.55,-0.32 -1.132,-0.629 -1.292,-0.685 -0.16,-0.057 -0.292,-0.16 -0.292,-0.231 0,-0.07 -0.131,-0.17 -0.291,-0.221 -0.161,-0.052 -0.667,-0.322 -1.125,-0.6 -0.459,-0.279 -0.995,-0.578 -1.192,-0.666 -0.198,-0.087 -0.409,-0.24 -0.47,-0.338 -0.061,-0.099 -0.181,-0.137 -0.267,-0.084 -0.085,0.053 -0.155,0.016 -0.155,-0.081 0,-0.097 -0.074,-0.176 -0.165,-0.176 -0.09,0 -0.691,-0.338 -1.335,-0.75 -0.643,-0.413 -1.281,-0.75 -1.418,-0.75 -0.137,0 -0.248,-0.058 -0.248,-0.129 0,-0.071 -0.282,-0.274 -0.625,-0.452 -0.344,-0.178 -1.021,-0.571 -1.504,-0.872 -0.483,-0.301 -0.951,-0.547 -1.041,-0.547 -0.09,0 -0.164,-0.06 -0.164,-0.134 0,-0.073 -0.243,-0.222 -0.541,-0.33 -0.298,-0.109 -0.76,-0.387 -1.026,-0.617 -0.267,-0.231 -0.585,-0.419 -0.709,-0.419 -0.123,0 -0.224,-0.07 -0.224,-0.154 0,-0.085 -0.262,-0.24 -0.583,-0.346 -0.321,-0.106 -0.583,-0.262 -0.583,-0.347 0,-0.084 -0.098,-0.153 -0.218,-0.153 -0.12,0 -0.664,-0.273 -1.209,-0.607 -0.544,-0.334 -1.177,-0.716 -1.407,-0.849 -0.229,-0.133 -0.716,-0.42 -1.083,-0.638 -0.367,-0.218 -0.948,-0.519 -1.292,-0.669 -0.343,-0.151 -0.626,-0.322 -0.627,-0.38 -0.001,-0.059 -0.301,-0.251 -0.666,-0.426 -0.366,-0.175 -0.665,-0.381 -0.665,-0.458 0,-0.077 -0.15,-0.14 -0.333,-0.14 -0.184,0 -0.334,-0.061 -0.334,-0.136 0,-0.074 -0.262,-0.238 -0.583,-0.364 -0.321,-0.126 -0.583,-0.285 -0.583,-0.354 0,-0.068 -0.263,-0.219 -0.584,-0.335 -0.321,-0.116 -0.583,-0.273 -0.583,-0.349 0,-0.075 -0.184,-0.207 -0.409,-0.292 -0.224,-0.086 -0.712,-0.347 -1.083,-0.582 -0.371,-0.234 -0.676,-0.368 -0.677,-0.298 -0.002,0.069 -0.063,0.032 -0.136,-0.083 -0.139,-0.219 -3.253,-2.067 -4.903,-2.91 -0.527,-0.269 -0.959,-0.542 -0.959,-0.607 0,-0.064 -0.206,-0.205 -0.458,-0.312 -0.252,-0.107 -0.758,-0.384 -1.125,-0.615 -0.367,-0.231 -0.892,-0.536 -1.167,-0.678 -0.667,-0.344 -1.48,-0.815 -1.583,-0.918 -0.046,-0.046 -0.571,-0.338 -1.167,-0.65 -0.596,-0.311 -1.233,-0.693 -1.416,-0.848 -0.184,-0.155 -0.577,-0.378 -0.875,-0.496 C 285.244,49.056 285,48.902 285,48.831 c 0,-0.07 -0.187,-0.175 -0.417,-0.233 -0.229,-0.057 -0.416,-0.178 -0.416,-0.268 0,-0.09 -0.098,-0.163 -0.218,-0.163 -0.119,0 -0.588,-0.236 -1.041,-0.524 -0.454,-0.288 -1.312,-0.786 -1.908,-1.107 -0.596,-0.321 -1.121,-0.633 -1.167,-0.693 -0.046,-0.061 -0.346,-0.243 -0.666,-0.404 -0.688,-0.347 -1.496,-0.803 -1.742,-0.984 -0.583,-0.43 -3.016,-1.788 -3.202,-1.788 -0.122,0 -0.223,-0.066 -0.223,-0.146 0,-0.081 -0.506,-0.424 -1.125,-0.763 -0.619,-0.339 -1.469,-0.817 -1.889,-1.062 -0.421,-0.245 -1.771,-1.031 -3,-1.747 -2.879,-1.674 -2.888,-1.68 -2.986,-1.805 -0.046,-0.059 -0.346,-0.23 -0.667,-0.381 -0.552,-0.259 -1.171,-0.604 -2.5,-1.395 -0.321,-0.191 -0.902,-0.508 -1.291,-0.706 -0.39,-0.197 -0.709,-0.439 -0.709,-0.538 0,-0.099 -0.046,-0.133 -0.104,-0.076 -0.057,0.057 -0.345,-0.08 -0.64,-0.305 -0.296,-0.225 -0.579,-0.41 -0.63,-0.41 -0.082,0 -0.743,-0.364 -2.709,-1.494 -0.275,-0.158 -0.95,-0.539 -1.5,-0.847 -0.55,-0.307 -1.037,-0.606 -1.083,-0.664 -0.046,-0.059 -0.589,-0.388 -1.207,-0.731 -0.618,-0.343 -1.166,-0.693 -1.218,-0.777 -0.052,-0.084 -0.241,-0.153 -0.419,-0.153 -0.177,0 -0.323,-0.06 -0.323,-0.134 0,-0.073 -0.319,-0.298 -0.708,-0.499 -0.39,-0.201 -0.821,-0.438 -0.959,-0.527 C 247.859,27.202 245.799,26 245.75,26 c -0.027,0 -0.526,-0.283 -1.108,-0.629 -0.582,-0.346 -1.265,-0.734 -1.517,-0.862 -0.252,-0.127 -0.458,-0.294 -0.458,-0.37 0,-0.077 -0.107,-0.139 -0.238,-0.139 -0.131,0 -0.338,-0.095 -0.459,-0.211 -0.121,-0.116 -0.539,-0.353 -0.928,-0.526 -0.39,-0.172 -0.709,-0.377 -0.709,-0.455 0,-0.078 -0.101,-0.141 -0.224,-0.141 -0.124,0 -0.398,-0.15 -0.609,-0.334 C 239.289,22.15 239.062,22 238.995,22 c -0.116,0 -0.871,-0.421 -2.473,-1.378 -0.425,-0.254 -0.903,-0.506 -1.064,-0.561 -0.16,-0.055 -0.291,-0.158 -0.291,-0.229 0,-0.071 -0.282,-0.254 -0.625,-0.407 -0.969,-0.431 -1.548,-0.752 -2.542,-1.408 -0.504,-0.332 -1.14,-0.716 -1.414,-0.852 -0.273,-0.137 -0.871,-0.492 -1.329,-0.79 -0.458,-0.298 -0.922,-0.542 -1.031,-0.542 -0.109,0 -0.223,-0.06 -0.254,-0.134 -0.03,-0.075 -0.505,-0.388 -1.055,-0.697 -0.55,-0.309 -2.613,-1.498 -4.584,-2.643 -1.971,-1.144 -3.751,-2.162 -3.957,-2.261 -0.205,-0.1 -0.374,-0.238 -0.375,-0.306 0,-0.069 -0.108,-0.125 -0.239,-0.125 -0.131,0 -0.337,-0.098 -0.458,-0.217 -0.122,-0.12 -0.558,-0.389 -0.971,-0.598 -0.412,-0.21 -1.162,-0.633 -1.666,-0.942 -0.505,-0.308 -1.292,-0.761 -1.75,-1.007 -0.459,-0.246 -0.871,-0.497 -0.917,-0.559 -0.046,-0.062 -0.567,-0.361 -1.157,-0.665 -0.591,-0.304 -1.172,-0.651 -1.291,-0.77 -0.12,-0.119 -0.649,-0.426 -1.176,-0.68 -0.528,-0.255 -0.997,-0.513 -1.043,-0.574 -0.046,-0.061 -0.495,-0.331 -1,-0.6 -0.793,-0.422 -1.943,-1.109 -3.093,-1.846 -0.178,-0.114 -0.643,-0.366 -1.034,-0.561 -0.391,-0.194 -0.751,-0.42 -0.801,-0.501 -0.131,-0.211 -1.262,-0.163 -1.655,0.071"
       style="fill:#663366;fill-opacity:1;fill-rule:evenodd;stroke:none"
       inkscape:connector-curvature="0"
       sodipodi:nodetypes="cccscsscssccscsccsccsscssccsscscccccscsscscsssccsssssssscssscssssscssscsssscccccccccssscsscsccccscscscccccsccsscsscccccscssssscscscscsccsscscccccccccsscscssscccccsscccccccccccscscccccscsscsccssccccssscccsccccccccccsccscscssccccccscccsscsccscsccssscscccscscsccsscssscscssssccccsccccssscscccsssccccsccscssccccccsccsccsccsscscccccccsccscscsscsssccccscccccscccscsssscsscscccssscccssssscscccccccsssscccsscccssccsscscccccscsssccccccccscsscscccccsssscssssscsccscsssccsscccscsscssscccscccccccssccccccscsccsscscccccsscsssccscccccccccssscccccscsccccccccccscccccsscsscsssccsssssccscccssssssscccccssscscccscsscscccsssccccccsccscccssssccsscssscsscsccscccsscscccsccccscccsccccc" />
  </g>
  <g
     inkscape:groupmode="layer"
     id="layer3"
     inkscape:label="Layer 2">
    <path
       style="fill:#f99a1f;fill-rule:evenodd;stroke:none;stroke-width:1.15128529"
       id="path1"
       d="m 156.81469,78.28288 c -7.32563,1.350458 -13.14307,7.369372 -13.14307,13.597826 0,0.255585 -0.13125,0.572188 -0.29012,0.704586 -0.25789,0.214139 -0.28898,12.791928 -0.28322,114.577068 l 0.006,114.3353 h 15.42607 15.42607 l 0.091,-35.92931 c 0.0898,-36.07092 0.11168,-37.21645 0.81051,-43.41382 1.53121,-13.55869 5.87616,-21.02247 14.86079,-25.5286 14.27824,-7.15754 30.97533,-1.43566 34.82177,11.93422 1.42299,4.94477 1.41263,4.60629 1.55884,51.58679 l 0.12895,41.25516 15.23035,0.0484 15.23035,0.0495 0.006,-22.9785 c 0.003,-12.63881 0.0414,-32.34767 0.0863,-43.79835 0.0979,-25.45262 -0.0564,-28.36076 -1.91804,-36.07322 -5.06106,-20.96951 -21.46111,-32.82775 -45.37676,-32.80818 -13.70145,0.0115 -24.64096,4.27472 -34.08726,13.28583 -0.64932,0.61939 -1.21115,1.05573 -1.24799,0.96938 -0.0587,-0.13815 0.1796,-95.49912 0.25904,-103.7711 0.0783,-8.087781 -2.37856,-13.319222 -7.66987,-16.334432 -2.89203,-1.647489 -6.69817,-2.302571 -9.92523,-1.708508 m 107.3965,25.22235 c -2.25076,0.33963 -3.10847,0.67581 -3.10847,1.21691 0,0.10016 -0.21644,0.43979 -0.48124,0.75409 l -0.48123,0.57219 0.061,24.88043 c 0.0334,13.68304 0.11512,25.13833 0.1819,25.45378 0.24062,1.14898 0.586,1.24915 4.33804,1.24915 3.9869,0.001 7.20705,0.27055 9.11242,0.76445 0.7541,0.19457 2.21393,0.57564 3.24318,0.84504 4.63392,1.21461 12.34753,5.17502 14.63629,7.51558 1.50818,1.54388 1.93415,1.72463 2.12066,0.90031 0.0668,-0.29013 0.18075,-0.78633 0.25559,-1.10293 0.21183,-0.89801 1.98597,-2.18399 4.76402,-3.45156 1.34585,-0.61363 3.52754,-1.61409 4.84806,-2.22197 1.73499,-0.80014 3.35484,-1.35621 5.85198,-2.00899 l 3.45271,-0.90376 5.33045,-0.1347 c 6.06497,-0.15427 6.24687,-0.20032 6.50706,-1.6613 0.36726,-2.06771 0.16579,-50.27895 -0.21183,-50.62088 -0.20148,-0.18191 -0.41792,-0.5388 -0.48239,-0.79324 -0.23256,-0.92793 -4.32884,-1.79255 -7.3878,-1.55999 -6.3551,0.48239 -11.11105,1.32398 -14.0169,2.47872 -3.31225,1.31476 -6.34013,3.07853 -8.79121,5.11746 -1.43911,1.19849 -1.32283,1.20079 -2.80453,-0.0564 -3.10157,-2.62954 -7.99683,-5.15315 -11.53013,-5.94178 -6.21118,-1.385 -11.71432,-1.84666 -15.40765,-1.29059 m 135.66516,7.49947 c 0,0.36841 0.0403,0.52038 0.0887,0.33502 0.0472,-0.1842 0.0472,-0.48699 0,-0.6712 -0.0484,-0.1842 -0.0887,-0.0334 -0.0887,0.33618 M 0.19661087,147.27025 c 0,0.47433 0.037992,0.6689 0.084044,0.43173 0.0449,-0.23832 0.0449,-0.6263 0,-0.86346 -0.046051,-0.23832 -0.084044,-0.0437 -0.084044,0.43173 M 399.69214,148.22923 c 0,0.47433 0.038,0.6689 0.084,0.43173 0.0449,-0.23716 0.0449,-0.6263 0,-0.86346 -0.0461,-0.23717 -0.084,-0.0437 -0.084,0.43173 m 0.006,3.45386 c 0,0.58024 0.0357,0.81741 0.0794,0.52728 0.0449,-0.29012 0.0449,-0.76445 0,-1.05457 -0.0437,-0.29013 -0.0794,-0.053 -0.0794,0.52729 M 0.21135757,158.20742 c 0,0.89685 0.033387,1.26411 0.073682,0.81511 0.040295,-0.449 0.040295,-1.18237 0,-1.63137 -0.040295,-0.44785 -0.073682,-0.0817 -0.073682,0.81626 M 399.68869,159.64653 c 0.002,0.42137 0.0414,0.57218 0.0875,0.33272 0.046,-0.23832 0.0437,-0.5837 -0.003,-0.76676 -0.0483,-0.1842 -0.0863,0.0115 -0.084,0.43404 m 0.009,1.82248 c 0,0.58025 0.0357,0.8174 0.0794,0.52729 0.0449,-0.29012 0.0449,-0.76445 0,-1.05458 -0.0437,-0.29012 -0.0794,-0.053 -0.0794,0.52729 m -0.20493,3.07047 c 0,0.36841 0.0392,0.52038 0.0875,0.33502 0.0483,-0.1842 0.0483,-0.48699 0,-0.6712 -0.0484,-0.1842 -0.0875,-0.0334 -0.0875,0.33618 m 0.20493,6.90771 c 0,0.58025 0.0357,0.81741 0.0794,0.52729 0.0449,-0.29013 0.0449,-0.76561 0,-1.05573 -0.0437,-0.29013 -0.0794,-0.053 -0.0794,0.52844 m -0.18536,3.26159 c 0,0.79208 0.0345,1.1156 0.076,0.71955 0.0414,-0.39604 0.0414,-1.04306 0,-1.4391 -0.0414,-0.39605 -0.076,-0.0714 -0.076,0.71955 m 0.003,12.66414 c 0,0.89685 0.0322,1.26411 0.0725,0.81511 0.0403,-0.44785 0.0403,-1.18237 0,-1.63022 -0.0403,-0.449 -0.0725,-0.0817 -0.0725,0.81511 m -0.006,3.64612 c 0,0.68501 0.0345,0.96593 0.0771,0.62284 0.0426,-0.34308 0.0426,-0.90375 0,-1.24684 -0.0426,-0.34308 -0.0771,-0.0622 -0.0771,0.624 M 2.2359098e-5,197.2544 c 0.0023030009,0.42252 0.0414463009,0.57219 0.0874977009,0.33387 0.046051,-0.23831 0.0449,-0.5837 -0.00345,-0.7679 -0.048354,-0.18306 -0.0851951,0.0127 -0.0840438009,0.43403 M 399.52521,199.84479 c 0,1.53006 0.0288,2.15636 0.0656,1.39191 0.0368,-0.76561 0.0368,-2.01706 0,-2.78266 -0.0368,-0.76561 -0.0656,-0.13931 -0.0656,1.39075 M 0.01770164,208.0005 c 0.001151,0.84389 0.0345386,1.1651 0.0759848,0.71379 0.040295,-0.4513 0.039144,-1.14207 -0.0023,-1.53466 -0.040295,-0.39259 -0.0736823,-0.0242 -0.0736823,0.82087 M 399.51715,210.59089 c 0,1.00162 0.0334,1.41263 0.0725,0.91067 0.0391,-0.50081 0.0391,-1.32168 0,-1.82249 -0.0391,-0.50081 -0.0725,-0.091 -0.0725,0.91182 m -0.0138,10.8405 c 10e-4,0.52844 0.0392,0.72071 0.0829,0.42943 0.0438,-0.29127 0.0426,-0.72301 -0.002,-0.95902 -0.046,-0.23601 -0.0817,0.002 -0.0806,0.52959"
       inkscape:connector-curvature="0" />
  </g>
</svg>
